<svg xmlns="http://www.w3.org/2000/svg" viewBox="0 0 418.889 318.898">
  <g data-name="Livello 2">
    <g data-name="Livello 1">
      <path d="M196.19 231.705h-17.604l.029 32.94c0 9.625-4.127 17.412-13.753 17.412-9.63 0-13.795-7.787-13.795-17.413v-32.908h-17.559l-.005 32.908c0 19.021 12.228 34.438 31.251 34.438 19.02 0 31.431-15.417 31.431-34.438ZM354.93 211.634h17.518v85.749H354.93zM385.382 214.797v-3.081h13.652v3.081h-4.993v13.578h-3.663v-13.578h-4.996zM406.102 211.717l3.897 11.454h.045l3.684-11.454h5.161v16.658h-3.43v-11.806h-.048l-4.081 11.806h-2.825l-4.081-11.689h-.048v11.689h-3.428v-16.658h5.154zM119.188 230.99c-15.1-3.486-24.625 11.516-25.022 12.32-.194.395-.201.625-.87.608-.552-.012-.614-.608-.614-.608l-1.875-11.476H75.113v65.493h17.593v-35.45c0-2.897 7.798-16.786 22.913-13.212 7.644 1.81 10.887 5.054 10.887 5.054v-19.953a28.107 28.107 0 0 0-7.318-2.777M237.112 247.583a17.553 17.553 0 1 1-17.55 17.55 17.554 17.554 0 0 1 17.55-17.55m-17.051 71.315v-23.565l.005.005.004-8.826s.027-.706.663-.714c.568-.007.695.369.833.714 1.334 3.32 8.668 15.962 24.946 11.997a34.676 34.676 0 1 0-44.089-33.376v53.765Z" style="fill:#009cde" />
      <path d="M330.683 265.133a17.553 17.553 0 1 1-17.552-17.55 17.555 17.555 0 0 1 17.552 17.55m-.5 32.223h17.637v-32.223a34.674 34.674 0 1 0-44.09 33.374c16.279 3.967 23.613-8.677 24.946-11.995.14-.345.264-.72.834-.716.636.01.663.716.663.716M24.786 226.44h-7.072v55.923l7.263.186c14.897 0 24.491-1.354 24.491-28.141 0-25.686-8.47-27.967-24.682-27.967m-4.776 70.778H0v-85.62h21.47c25.997 0 45.715 4.771 45.715 42.809 0 37.674-20.886 42.81-47.175 42.81M226.004 40.326C212.682 27.01 199.97 14.316 196.188 0c-3.783 14.316-16.496 27.01-29.816 40.326-19.98 19.968-42.633 42.598-42.633 76.54a72.451 72.451 0 1 0 144.903 0c0-33.94-22.652-56.572-42.638-76.54m-71.471 93.421c-4.443-.15-20.838-28.41 9.578-58.499l20.127 21.986a1.72 1.72 0 0 1-.134 2.567c-4.803 4.926-25.274 25.454-27.818 32.553-.526 1.465-1.293 1.41-1.753 1.393m41.657 37.245a24.918 24.918 0 0 1-24.918-24.917 25.965 25.965 0 0 1 6.211-16.46c4.493-5.493 18.704-20.946 18.704-20.946s13.993 15.68 18.67 20.894a24.368 24.368 0 0 1 6.251 16.512 24.918 24.918 0 0 1-24.918 24.917m47.693-40.408c-.537 1.175-1.755 3.136-3.4 3.196-2.93.106-3.244-1.395-5.41-4.602-4.756-7.038-46.263-50.417-54.027-58.807-6.828-7.379-.961-12.58 1.76-15.307 3.415-3.42 13.382-13.381 13.382-13.381s29.718 28.196 42.098 47.463 8.113 35.937 5.597 41.438" style="fill:#009cde" />
    </g>
  </g>
</svg>